<mxfile host="app.diagrams.net" modified="2021-12-20T01:58:55.090Z" agent="5.0 (Windows NT 10.0; WOW64) AppleWebKit/537.36 (KHTML, like Gecko) Chrome/75.0.3770.100 Safari/537.36" etag="0Pek4hESMgXUYb5w-q1x" version="16.0.0" type="github">
  <diagram id="IrO2vmYkuA4DbyhJc1Ti" name="Page-1">
    <mxGraphModel dx="1422" dy="760" grid="1" gridSize="10" guides="1" tooltips="1" connect="1" arrows="1" fold="1" page="1" pageScale="1" pageWidth="827" pageHeight="1169" math="0" shadow="0">
      <root>
        <mxCell id="0" />
        <mxCell id="1" parent="0" />
        <mxCell id="IXZtVFJtthrJYwxyvM6c-3" value="" style="edgeStyle=orthogonalEdgeStyle;rounded=0;orthogonalLoop=1;jettySize=auto;html=1;" edge="1" parent="1" source="IXZtVFJtthrJYwxyvM6c-1" target="IXZtVFJtthrJYwxyvM6c-2">
          <mxGeometry relative="1" as="geometry" />
        </mxCell>
        <mxCell id="IXZtVFJtthrJYwxyvM6c-1" value="" style="rounded=1;whiteSpace=wrap;html=1;fillColor=#dae8fc;strokeColor=#6c8ebf;gradientColor=none;gradientDirection=west;glass=0;shadow=0;sketch=1;" vertex="1" parent="1">
          <mxGeometry x="230" y="140" width="120" height="30" as="geometry" />
        </mxCell>
        <mxCell id="IXZtVFJtthrJYwxyvM6c-2" value="" style="whiteSpace=wrap;html=1;fillColor=#dae8fc;strokeColor=#6c8ebf;rounded=1;gradientColor=none;gradientDirection=west;glass=0;shadow=0;sketch=1;" vertex="1" parent="1">
          <mxGeometry x="230" y="235" width="120" height="60" as="geometry" />
        </mxCell>
      </root>
    </mxGraphModel>
  </diagram>
</mxfile>
